<svg xmlns="http://www.w3.org/2000/svg" xmlns:xlink="http://www.w3.org/1999/xlink" xml:space="preserve" version="1.1" style="shape-rendering:geometricPrecision;text-rendering:geometricPrecision;image-rendering:optimizeQuality;" viewBox="0 0 333 416.25" x="0px" y="0px" fill-rule="evenodd" clip-rule="evenodd"><defs><style type="text/css">
   
    .fil0 {fill:black}
   
  </style></defs><g><path class="fil0" d="M191 23l0 34c13,3 25,8 36,15l24 -24c14,-14 48,20 34,34l-24 24c7,11 12,24 15,37l35 0c19,0 19,48 0,48l-35 0c-3,13 -8,25 -15,36l24 24c14,14 -20,48 -34,34l-24 -24c-11,7 -23,12 -36,15l0 35c0,19 -48,19 -48,0l0 -35c-13,-3 -26,-8 -37,-15l-24 24c-14,14 -48,-20 -34,-34l24 -24c-7,-11 -12,-23 -15,-36l-34 0c-19,0 -19,-48 0,-48l34 0c3,-13 8,-26 15,-37l-24 -24c-14,-14 20,-48 34,-34l24 24c11,-7 24,-12 37,-15l0 -34c0,-19 48,-19 48,0zm-24 82c34,0 62,27 62,62 0,34 -28,62 -62,62 -35,0 -62,-28 -62,-62 0,-35 27,-62 62,-62z"/></g></svg>