<svg xmlns="http://www.w3.org/2000/svg" xmlns:xlink="http://www.w3.org/1999/xlink" viewBox="0 0 100 125" version="1.1" x="0px" y="0px"><title>Download s7.4</title><desc>Created with Sketch.</desc><g stroke="none" stroke-width="1" fill="none" fill-rule="evenodd"><g fill="#000000"><path d="M50,16.5 C68.5015391,16.5 83.5,31.4984609 83.5,50 C83.5,68.5015391 68.5015391,83.5 50,83.5 C31.4984609,83.5 16.5,68.5015391 16.5,50 C16.5,31.4984609 31.4984609,16.5 50,16.5 Z M47.9559103,63.3552963 L37.9299666,53.1194252 C35.1099887,50.2913672 39.3399555,46.0482801 42.1609306,48.8763382 L45.5930489,52.3313817 C46.3743941,53.117946 47.0080734,52.8572016 47.0080734,51.7486527 L47.0080734,37.9926608 C47.0080734,36.3488751 48.3474091,35 49.9995634,35 C51.6483559,35 52.9910534,36.3398599 52.9910534,37.9926608 L52.9910534,51.7486527 C52.9910534,52.851224 53.6247118,53.1180983 54.4063691,52.3313817 L57.8391934,48.8763382 C60.6591713,46.0482801 64.8901353,50.2913672 62.0701574,53.1194252 L52.1469695,63.3411654 C50.9867936,64.5362467 49.1145961,64.5382432 47.9559103,63.3552963 Z M50,23.5 C35.3644541,23.5 23.5,35.3644541 23.5,50 C23.5,64.6355459 35.3644541,76.5 50,76.5 C64.6355459,76.5 76.5,64.6355459 76.5,50 C76.5,35.3644541 64.6355459,23.5 50,23.5 Z"/></g></g></svg>